# xmcd
#
# Track frame offsets:
#	150
#	13705
#	32420
#	69677
#	96480
#	134507
#	150820
#	184560
#	230880
#
# Disc length: 3554 seconds
#
# Revision: 1
# Processed by: cddbd v1.4b42PL1 Copyright (c) Steve Scherf et al.
# Submitted via: audiograbber 1.80
#
DISCID=700de009
DTITLE=Patrick Bernhardt - Amor Immortalis
DYEAR=1900
DGENRE=
TTITLE0=At The Dawn Of Creation
TTITLE1=Song Of Immortal Love 1
TTITLE2=Song Of Immortal Love 2
TTITLE3=Amorous Pastimes Of Govinda
TTITLE4=Song Of Immortal Love 3
TTITLE5=Transcendental Philosopher's Stone
TTITLE6=Vision Of The Sweet Absolute
TTITLE7=Song Of Immortal Love 4
TTITLE8=Angels Of Light Over Battlefields
EXTD=
EXTT0=
EXTT1=
EXTT2=
EXTT3=
EXTT4=
EXTT5=
EXTT6=
EXTT7=
EXTT8=
PLAYORDER=
